<svg xmlns="http://www.w3.org/2000/svg" width="810" viewBox="0 0 810 810" height="810" version="1.0"><g fill="#030303"><g><g><path d="M 85.613281 0.109375 L 85.648438 -27.097656 L 42.460938 -27.152344 L 42.496094 -54.359375 L 78.261719 -54.3125 L 78.296875 -81.519531 L 42.53125 -81.5625 L 42.5625 -108.769531 L 83.46875 -108.71875 L 83.503906 -135.925781 L 15.390625 -136.011719 L 15.21875 0.0195312 Z M 85.613281 0.109375" transform="translate(264.694 540.156)"/></g></g></g><g fill="#030303"><g><g><path d="M 42.519531 -73.953125 L 111.292969 2.996094 L 118.523438 3.003906 L 118.699219 -135.691406 L 91.300781 -135.722656 L 91.207031 -58.863281 L 22.625 -138.855469 L 15.394531 -138.863281 L 15.21875 0.0195312 L 42.425781 0.0546875 Z M 42.519531 -73.953125" transform="translate(360.58 540.277)"/></g></g></g><g fill="#030303"><g><g><path d="M 64.875 0.0820312 L 65.011719 -108.742188 L 98.878906 -108.699219 L 98.914062 -135.714844 L 3.976562 -135.835938 L 3.941406 -108.820312 L 37.808594 -108.777344 L 37.667969 0.046875 Z M 64.875 0.0820312" transform="translate(494.515 540.446)"/></g></g></g><g fill="#030303"><g><g><path d="M 3.042969 0.00390625 L 33.863281 0.0429688 L 39.210938 -14.601562 L 84.300781 -14.542969 L 89.796875 0.113281 L 120.429688 0.152344 L 63.34375 -140.898438 L 60.488281 -140.898438 Z M 49.136719 -40.082031 L 61.925781 -75.453125 L 74.25 -40.050781 Z M 49.136719 -40.082031" transform="translate(598.582 540.578)"/></g></g></g><path fill="#FF2121" d="M 241.082031 572.175781 L 82.820312 571.976562 C 72.699219 571.964844 64.464844 563.710938 64.476562 553.59375 L 64.664062 404.3125 C 64.679688 394.195312 72.933594 385.964844 83.054688 385.976562 L 241.320312 386.175781 C 251.4375 386.1875 259.671875 394.441406 259.660156 404.558594 L 259.472656 553.839844 C 259.460938 563.957031 251.203125 572.1875 241.082031 572.175781"/><path transform="matrix(11.27235 0 0 11.03448 93.418 303.468)" fill="none" d="M -0.000011892 0.0000499223 L 13.108319 0.0000499223" stroke="#062424"/><path transform="matrix(11.24498 0 0 11.03448 547.302 298.877)" fill="none" d="M -0.000116916 -0.00015705 L 11.672453 -0.00015705" stroke="#062424"/><g fill="#FFF"><g><g><path d="M 69.039062 -69.539062 L 21.449219 -122.667969 L 13.675781 -122.675781 L 13.519531 0.015625 L 38.023438 0.046875 L 38.109375 -67.382812 L 68.996094 -34.894531 L 99.964844 -67.304688 L 99.710938 0.125 L 124.214844 0.15625 L 124.371094 -122.535156 L 116.765625 -122.546875 Z M 69.039062 -69.539062" transform="translate(87.261 535.05)"/></g></g></g><g fill="#030303"><g><g><path d="M 60.972656 0.078125 L 61.101562 -102.203125 L 92.929688 -102.160156 L 92.964844 -127.554688 L 3.738281 -127.664062 L 3.707031 -102.273438 L 35.535156 -102.234375 L 35.40625 0.0429688 Z M 60.972656 0.078125" transform="translate(240.983 354.007)"/></g></g></g><g fill="#030303"><g><g><path d="M 103.710938 0.132812 L 103.871094 -127.71875 L 78.300781 -127.75 L 78.238281 -76.609375 L 39.972656 -76.660156 L 40.035156 -127.796875 L 14.464844 -127.832031 L 14.304688 0.0195312 L 39.875 0.0507812 L 39.9375 -51.089844 L 78.203125 -51.039062 L 78.140625 0.0976562 Z M 103.710938 0.132812" transform="translate(338.789 354.13)"/></g></g></g><g fill="#030303"><g><g><path d="M 80.464844 0.101562 L 80.496094 -25.46875 L 39.90625 -25.519531 L 39.9375 -51.089844 L 73.554688 -51.046875 L 73.585938 -76.617188 L 39.972656 -76.660156 L 40.003906 -102.230469 L 78.449219 -102.179688 L 78.480469 -127.75 L 14.464844 -127.832031 L 14.304688 0.0195312 Z M 80.464844 0.101562" transform="translate(456.978 354.28)"/></g></g></g></svg>