<svg xmlns="http://www.w3.org/2000/svg" width="36" viewBox="0 0 36 36" height="36" version="1.0"><defs><clipPath id="a"><path d="M 0.488281 0 L 35.511719 0 L 35.511719 35.027344 L 0.488281 35.027344 Z M 0.488281 0"/></clipPath></defs><g clip-path="url(#a)" fill="#FFF"><path d="M 0.488281 0 L 35.511719 0 L 35.511719 42.324219 L 0.488281 42.324219 Z M 0.488281 0"/><path d="M 0.488281 0 L 35.511719 0 L 35.511719 35.027344 L 0.488281 35.027344 Z M 0.488281 0"/><path d="M 0.488281 0 L 35.511719 0 L 35.511719 35.027344 L 0.488281 35.027344 Z M 0.488281 0"/></g><path fill="#29B6F6" d="M 18 2.917969 C 9.972656 2.917969 3.40625 9.488281 3.40625 17.511719 C 3.40625 25.539062 9.972656 32.109375 18 32.109375 C 26.027344 32.109375 32.59375 25.539062 32.59375 17.511719 C 32.59375 9.488281 26.027344 2.917969 18 2.917969 Z M 18 2.917969"/><path fill="#FFF" d="M 25.296875 10.945312 L 22.597656 24.882812 C 22.597656 24.882812 22.453125 25.539062 21.722656 25.539062 C 21.285156 25.539062 21.066406 25.320312 21.066406 25.320312 L 15.082031 20.433594 L 12.164062 18.972656 L 8.441406 17.953125 C 8.441406 17.953125 7.785156 17.734375 7.785156 17.222656 C 7.785156 16.785156 8.441406 16.566406 8.441406 16.566406 L 23.984375 10.363281 C 23.984375 10.363281 24.496094 10.214844 24.785156 10.214844 C 25.003906 10.214844 25.222656 10.289062 25.222656 10.582031 C 25.296875 10.800781 25.296875 10.945312 25.296875 10.945312 Z M 25.296875 10.945312"/><path fill="#B0BEC5" d="M 17.269531 22.257812 L 14.789062 24.738281 C 14.789062 24.738281 14.714844 24.8125 14.570312 24.8125 C 14.496094 24.8125 14.496094 24.8125 14.425781 24.8125 L 15.152344 20.433594 Z M 17.269531 22.257812"/><path fill="#CFD8DC" d="M 22.304688 13.28125 C 22.160156 13.136719 21.941406 13.0625 21.792969 13.207031 L 12.164062 18.972656 C 12.164062 18.972656 13.695312 23.277344 13.914062 24.007812 C 14.132812 24.738281 14.351562 24.738281 14.351562 24.738281 L 15.082031 20.359375 L 22.234375 13.71875 C 22.378906 13.644531 22.453125 13.425781 22.304688 13.28125 Z M 22.304688 13.28125"/></svg>