<svg xmlns="http://www.w3.org/2000/svg" xmlns:xlink="http://www.w3.org/1999/xlink" width="36" viewBox="0 0 36 36" height="36" version="1.0"><defs><clipPath id="a"><path d="M 0.488281 0 L 35.511719 0 L 35.511719 35.027344 L 0.488281 35.027344 Z M 0.488281 0"/></clipPath><clipPath id="b"><path d="M 3 2 L 33 2 L 33 33 L 3 33 Z M 3 2"/></clipPath><clipPath id="c"><path d="M 28.105469 7.195312 C 25.351562 4.4375 21.6875 2.921875 17.789062 2.917969 C 9.75 2.917969 3.207031 9.457031 3.203125 17.5 C 3.203125 19.957031 3.820312 22.375 5 24.519531 L 3.113281 31.40625 C 3.042969 31.660156 3.113281 31.929688 3.296875 32.113281 C 3.4375 32.253906 3.625 32.328125 3.816406 32.328125 C 3.878906 32.328125 3.941406 32.320312 4 32.304688 L 11.070312 30.453125 C 13.132812 31.523438 15.449219 32.089844 17.78125 32.089844 C 25.828125 32.089844 32.367188 25.550781 32.371094 17.511719 C 32.375 13.613281 30.859375 9.949219 28.105469 7.195312 Z M 28.105469 7.195312" clip-rule="evenodd"/></clipPath><clipPath id="e"><path d="M 6 5 L 30 5 L 30 30 L 6 30 Z M 6 5"/></clipPath><clipPath id="f"><path d="M 25.933594 9.363281 C 23.757812 7.1875 20.867188 5.988281 17.792969 5.988281 C 11.441406 5.988281 6.273438 11.152344 6.269531 17.5 C 6.269531 19.675781 6.878906 21.792969 8.03125 23.625 L 8.304688 24.0625 L 7.140625 28.308594 L 11.5 27.167969 L 11.921875 27.414062 C 13.691406 28.464844 15.714844 29.019531 17.785156 29.019531 L 17.789062 29.019531 C 24.136719 29.019531 29.300781 23.855469 29.304688 17.507812 C 29.304688 14.433594 28.109375 11.539062 25.933594 9.363281 Z M 25.933594 9.363281" clip-rule="evenodd"/></clipPath><linearGradient x1=".711" gradientTransform="translate(.486) scale(.72973)" xmlns:xlink="http://www.w3.org/1999/xlink" y1="6.793" x2="40.959" gradientUnits="userSpaceOnUse" y2="47.042" xlink:type="simple" xlink:actuate="onLoad" id="d" xlink:show="other"><stop stop-color="#DFE9F2" offset="0"/><stop stop-color="#DFE9F2" offset=".125"/><stop stop-color="#DFE9F2" offset=".156"/><stop stop-color="#DFE9F2" offset=".172"/><stop stop-color="#DEE8F1" offset=".188"/><stop stop-color="#DEE8F1" offset=".203"/><stop stop-color="#DDE7F0" offset=".219"/><stop stop-color="#DDE6EF" offset=".234"/><stop stop-color="#DCE6EF" offset=".25"/><stop stop-color="#DCE5EE" offset=".266"/><stop stop-color="#DBE5EE" offset=".281"/><stop stop-color="#DAE4ED" offset=".297"/><stop stop-color="#DAE4ED" offset=".313"/><stop stop-color="#D9E3EC" offset=".328"/><stop stop-color="#D9E3EC" offset=".344"/><stop stop-color="#D8E2EB" offset=".359"/><stop stop-color="#D8E2EB" offset=".375"/><stop stop-color="#D7E1EA" offset=".391"/><stop stop-color="#D7E1EA" offset=".406"/><stop stop-color="#D6E0E9" offset=".422"/><stop stop-color="#D6E0E9" offset=".438"/><stop stop-color="#D5DFE8" offset=".453"/><stop stop-color="#D4DEE7" offset=".469"/><stop stop-color="#D3DDE6" offset=".484"/><stop stop-color="#D2DCE5" offset=".499"/><stop stop-color="#D2DCE5" offset=".5"/><stop stop-color="#D2DBE4" offset=".501"/><stop stop-color="#D1DBE4" offset=".516"/><stop stop-color="#D1DAE4" offset=".531"/><stop stop-color="#D0DAE3" offset=".547"/><stop stop-color="#CFD9E2" offset=".563"/><stop stop-color="#CED8E1" offset=".578"/><stop stop-color="#CDD7E0" offset=".594"/><stop stop-color="#CDD6DF" offset=".609"/><stop stop-color="#CCD5DE" offset=".625"/><stop stop-color="#CBD4DD" offset=".641"/><stop stop-color="#CAD3DD" offset=".656"/><stop stop-color="#C9D3DC" offset=".672"/><stop stop-color="#C8D2DB" offset=".688"/><stop stop-color="#C7D1DA" offset=".703"/><stop stop-color="#C7D0D9" offset=".719"/><stop stop-color="#C6CFD8" offset=".734"/><stop stop-color="#C5CED7" offset=".75"/><stop stop-color="#C4CDD6" offset=".766"/><stop stop-color="#C3CCD6" offset=".781"/><stop stop-color="#C2CCD5" offset=".797"/><stop stop-color="#C2CBD4" offset=".813"/><stop stop-color="#C1CAD3" offset=".828"/><stop stop-color="#C0C9D2" offset=".844"/><stop stop-color="#BFC8D1" offset=".875"/><stop stop-color="#BFC8D1" offset="1"/></linearGradient><linearGradient x1="13.056" gradientTransform="translate(.486) scale(.72973)" xmlns:xlink="http://www.w3.org/1999/xlink" y1="5.784" x2="30.995" gradientUnits="userSpaceOnUse" y2="43.78" xlink:type="simple" xlink:actuate="onLoad" id="g" xlink:show="other"><stop stop-color="#2ECC75" offset="0"/><stop stop-color="#2ECC75" offset=".125"/><stop stop-color="#2ECC75" offset=".141"/><stop stop-color="#2DCB74" offset=".148"/><stop stop-color="#2DCA74" offset=".156"/><stop stop-color="#2CCA73" offset=".164"/><stop stop-color="#2CC973" offset=".172"/><stop stop-color="#2CC972" offset=".18"/><stop stop-color="#2BC872" offset=".188"/><stop stop-color="#2BC872" offset=".195"/><stop stop-color="#2BC771" offset=".203"/><stop stop-color="#2AC671" offset=".211"/><stop stop-color="#2AC670" offset=".219"/><stop stop-color="#2AC570" offset=".227"/><stop stop-color="#29C56F" offset=".234"/><stop stop-color="#29C46F" offset=".242"/><stop stop-color="#29C46E" offset=".25"/><stop stop-color="#28C36E" offset=".258"/><stop stop-color="#28C36D" offset=".266"/><stop stop-color="#27C26D" offset=".273"/><stop stop-color="#27C16D" offset=".281"/><stop stop-color="#27C16C" offset=".289"/><stop stop-color="#26C06C" offset=".297"/><stop stop-color="#26C06B" offset=".305"/><stop stop-color="#26BF6B" offset=".313"/><stop stop-color="#25BF6A" offset=".32"/><stop stop-color="#25BE6A" offset=".321"/><stop stop-color="#25BE6A" offset=".328"/><stop stop-color="#25BD69" offset=".336"/><stop stop-color="#24BD69" offset=".344"/><stop stop-color="#24BC69" offset=".352"/><stop stop-color="#23BC68" offset=".359"/><stop stop-color="#23BB68" offset=".367"/><stop stop-color="#23BB67" offset=".375"/><stop stop-color="#22BA67" offset=".383"/><stop stop-color="#22BA66" offset=".391"/><stop stop-color="#22B966" offset=".398"/><stop stop-color="#21B865" offset=".406"/><stop stop-color="#21B865" offset=".414"/><stop stop-color="#21B765" offset=".422"/><stop stop-color="#20B764" offset=".43"/><stop stop-color="#20B664" offset=".438"/><stop stop-color="#1FB663" offset=".445"/><stop stop-color="#1FB563" offset=".453"/><stop stop-color="#1FB462" offset=".461"/><stop stop-color="#1EB462" offset=".469"/><stop stop-color="#1EB361" offset=".477"/><stop stop-color="#1EB361" offset=".484"/><stop stop-color="#1DB260" offset=".492"/><stop stop-color="#1DB260" offset=".5"/><stop stop-color="#1DB160" offset=".508"/><stop stop-color="#1CB15F" offset=".516"/><stop stop-color="#1CB05F" offset=".523"/><stop stop-color="#1BAF5E" offset=".531"/><stop stop-color="#1BAF5E" offset=".539"/><stop stop-color="#1BAE5D" offset=".547"/><stop stop-color="#1AAE5D" offset=".555"/><stop stop-color="#1AAD5C" offset=".563"/><stop stop-color="#1AAD5C" offset=".57"/><stop stop-color="#19AC5C" offset=".578"/><stop stop-color="#19AB5B" offset=".586"/><stop stop-color="#19AB5B" offset=".594"/><stop stop-color="#18AA5A" offset=".602"/><stop stop-color="#18AA5A" offset=".609"/><stop stop-color="#17A959" offset=".617"/><stop stop-color="#17A959" offset=".625"/><stop stop-color="#17A858" offset=".633"/><stop stop-color="#16A858" offset=".641"/><stop stop-color="#16A758" offset=".648"/><stop stop-color="#16A657" offset=".656"/><stop stop-color="#15A657" offset=".664"/><stop stop-color="#15A556" offset=".672"/><stop stop-color="#15A556" offset=".679"/><stop stop-color="#14A456" offset=".68"/><stop stop-color="#14A455" offset=".688"/><stop stop-color="#14A455" offset=".695"/><stop stop-color="#13A354" offset=".703"/><stop stop-color="#13A254" offset=".711"/><stop stop-color="#13A253" offset=".719"/><stop stop-color="#12A153" offset=".727"/><stop stop-color="#12A153" offset=".734"/><stop stop-color="#12A052" offset=".742"/><stop stop-color="#11A052" offset=".75"/><stop stop-color="#119F51" offset=".758"/><stop stop-color="#119F51" offset=".766"/><stop stop-color="#109E50" offset=".773"/><stop stop-color="#109D50" offset=".781"/><stop stop-color="#0F9D4F" offset=".789"/><stop stop-color="#0F9C4F" offset=".797"/><stop stop-color="#0F9C4F" offset=".805"/><stop stop-color="#0E9B4E" offset=".813"/><stop stop-color="#0E9B4E" offset=".82"/><stop stop-color="#0E9A4D" offset=".828"/><stop stop-color="#0D994D" offset=".836"/><stop stop-color="#0D994C" offset=".844"/><stop stop-color="#0D984C" offset=".852"/><stop stop-color="#0C984B" offset=".859"/><stop stop-color="#0C974B" offset=".867"/><stop stop-color="#0B974B" offset=".875"/><stop stop-color="#0B964A" offset="1"/></linearGradient></defs><g clip-path="url(#a)" fill="#FFF"><path d="M 0.488281 0 L 35.511719 0 L 35.511719 42.324219 L 0.488281 42.324219 Z M 0.488281 0"/><path d="M 0.488281 0 L 35.511719 0 L 35.511719 35.027344 L 0.488281 35.027344 Z M 0.488281 0"/><path d="M 0.488281 0 L 35.511719 0 L 35.511719 35.027344 L 0.488281 35.027344 Z M 0.488281 0"/></g><g clip-path="url(#b)"><g clip-path="url(#c)"><path fill="url(#d)" d="M 3.042969 2.917969 L 3.042969 32.328125 L 32.375 32.328125 L 32.375 2.917969 Z M 3.042969 2.917969"/></g></g><g clip-path="url(#e)"><g clip-path="url(#f)"><path fill="url(#g)" d="M 6.269531 5.988281 L 6.269531 29.019531 L 29.304688 29.019531 L 29.304688 5.988281 Z M 6.269531 5.988281"/></g></g><path d="M 21.570312 24.722656 C 20.84375 24.722656 19.851562 24.539062 17.859375 23.75 C 15.625 22.871094 13.433594 20.957031 11.683594 18.363281 L 11.625 18.28125 C 11.15625 17.65625 10.070312 16.011719 10.070312 14.265625 C 10.070312 12.382812 11.011719 11.382812 11.410156 10.953125 L 11.472656 10.886719 C 12.027344 10.28125 12.679688 10.214844 12.933594 10.214844 C 13.203125 10.21875 13.433594 10.214844 13.628906 10.226562 C 14.105469 10.242188 14.652344 10.382812 15.042969 11.253906 C 15.226562 11.660156 15.535156 12.425781 15.777344 13.023438 C 15.933594 13.40625 16.058594 13.71875 16.097656 13.804688 C 16.3125 14.230469 16.324219 14.65625 16.125 15.054688 L 16.078125 15.152344 C 15.984375 15.34375 15.886719 15.539062 15.679688 15.78125 L 15.507812 15.988281 C 15.390625 16.128906 15.273438 16.273438 15.167969 16.382812 C 15.449219 16.851562 16.046875 17.738281 16.867188 18.472656 C 17.882812 19.378906 18.757812 19.757812 19.222656 19.960938 C 19.316406 20 19.394531 20.035156 19.457031 20.0625 C 19.75 19.71875 20.238281 19.136719 20.40625 18.886719 C 20.96875 18.042969 21.773438 18.335938 22.039062 18.429688 C 22.453125 18.582031 24.464844 19.582031 24.484375 19.589844 L 24.671875 19.683594 C 24.976562 19.832031 25.265625 19.96875 25.445312 20.273438 C 25.734375 20.753906 25.574219 21.785156 25.304688 22.539062 C 24.914062 23.632812 23.242188 24.585938 22.347656 24.664062 L 22.179688 24.683594 C 21.988281 24.703125 21.792969 24.722656 21.570312 24.722656 Z M 13.050781 11.675781 C 12.949219 11.675781 12.769531 11.632812 12.550781 11.871094 L 12.476562 11.953125 C 12.144531 12.304688 11.527344 12.960938 11.527344 14.265625 C 11.527344 15.613281 12.496094 17.007812 12.792969 17.40625 C 12.8125 17.429688 12.84375 17.476562 12.890625 17.546875 C 14.476562 19.898438 16.433594 21.621094 18.394531 22.394531 C 20.863281 23.367188 21.496094 23.292969 22.011719 23.234375 L 22.214844 23.210938 C 22.65625 23.171875 23.761719 22.515625 23.929688 22.046875 C 24.082031 21.621094 24.128906 21.253906 24.136719 21.046875 C 24.105469 21.03125 24.070312 21.015625 24.035156 20.996094 L 23.828125 20.894531 C 23.363281 20.660156 21.800781 19.898438 21.542969 19.804688 C 21.21875 20.246094 20.621094 20.945312 20.464844 21.128906 C 20.167969 21.46875 19.640625 21.792969 18.835938 21.386719 C 18.789062 21.363281 18.722656 21.335938 18.640625 21.296875 C 18.136719 21.078125 17.085938 20.621094 15.894531 19.5625 C 14.824219 18.605469 14.089844 17.441406 13.824219 16.988281 C 13.5 16.429688 13.589844 15.894531 14.089844 15.394531 C 14.179688 15.308594 14.277344 15.183594 14.382812 15.058594 L 14.574219 14.832031 C 14.660156 14.730469 14.691406 14.667969 14.765625 14.507812 L 14.792969 14.457031 C 14.726562 14.308594 14.589844 13.976562 14.425781 13.570312 C 14.191406 12.992188 13.890625 12.246094 13.710938 11.851562 C 13.664062 11.746094 13.628906 11.695312 13.613281 11.671875 C 13.613281 11.683594 13.589844 11.683594 13.570312 11.683594 C 13.40625 11.675781 13.230469 11.675781 13.050781 11.675781 Z M 24.136719 20.882812 Z M 14.820312 14.402344 Z M 14.820312 14.402344" fill-opacity=".047" fill-rule="evenodd"/><path d="M 21.566406 24.359375 C 20.949219 24.359375 19.996094 24.199219 17.992188 23.410156 C 15.828125 22.558594 13.695312 20.691406 11.984375 18.160156 L 11.921875 18.066406 C 11.472656 17.464844 10.433594 15.902344 10.433594 14.265625 C 10.433594 12.527344 11.304688 11.601562 11.675781 11.203125 L 11.742188 11.132812 C 12.199219 10.632812 12.726562 10.582031 12.933594 10.582031 C 13.210938 10.582031 13.421875 10.582031 13.613281 10.589844 C 13.972656 10.605469 14.386719 10.679688 14.710938 11.402344 C 14.890625 11.808594 15.199219 12.566406 15.441406 13.160156 C 15.605469 13.566406 15.738281 13.890625 15.769531 13.960938 C 15.832031 14.082031 16.015625 14.453125 15.800781 14.890625 L 15.75 14.992188 C 15.660156 15.175781 15.582031 15.339844 15.402344 15.542969 L 15.226562 15.753906 C 15.101562 15.90625 14.972656 16.0625 14.863281 16.171875 C 14.707031 16.328125 14.707031 16.328125 14.769531 16.433594 C 15.007812 16.84375 15.667969 17.890625 16.625 18.742188 C 17.683594 19.6875 18.59375 20.082031 19.078125 20.292969 C 19.183594 20.339844 19.265625 20.375 19.328125 20.40625 C 19.542969 20.515625 19.566406 20.492188 19.640625 20.40625 C 19.851562 20.167969 20.492188 19.410156 20.707031 19.085938 C 21.113281 18.480469 21.636719 18.671875 21.914062 18.773438 C 22.285156 18.90625 24.132812 19.820312 24.320312 19.914062 L 24.511719 20.007812 C 24.789062 20.144531 25.007812 20.25 25.132812 20.457031 C 25.320312 20.769531 25.242188 21.628906 24.960938 22.414062 C 24.605469 23.414062 23.03125 24.234375 22.316406 24.300781 L 22.140625 24.320312 C 21.96875 24.339844 21.792969 24.359375 21.566406 24.359375 Z M 13.039062 11.3125 C 13.019531 11.3125 13 11.3125 12.980469 11.3125 C 12.847656 11.3125 12.546875 11.332031 12.28125 11.625 L 12.207031 11.703125 C 11.871094 12.0625 11.164062 12.816406 11.164062 14.265625 C 11.164062 15.683594 12.097656 17.085938 12.5 17.621094 C 12.519531 17.648438 12.546875 17.6875 12.589844 17.75 C 14.21875 20.164062 16.230469 21.929688 18.261719 22.734375 C 20.816406 23.742188 21.503906 23.660156 22.054688 23.597656 L 22.246094 23.574219 C 22.753906 23.53125 24.035156 22.835938 24.273438 22.167969 C 24.515625 21.488281 24.527344 20.921875 24.488281 20.800781 C 24.496094 20.804688 24.320312 20.730469 24.195312 20.667969 L 23.992188 20.566406 C 23.539062 20.339844 21.945312 19.558594 21.667969 19.457031 C 21.402344 19.363281 21.402344 19.363281 21.316406 19.492188 C 21.0625 19.871094 20.351562 20.703125 20.191406 20.886719 C 19.722656 21.421875 19.179688 21.148438 19 21.058594 C 18.949219 21.03125 18.878906 21 18.789062 20.964844 C 18.300781 20.75 17.285156 20.308594 16.140625 19.289062 C 15.105469 18.367188 14.398438 17.242188 14.140625 16.800781 C 13.792969 16.207031 14.183594 15.816406 14.351562 15.652344 C 14.445312 15.558594 14.554688 15.425781 14.664062 15.289062 L 14.851562 15.066406 C 14.964844 14.929688 15.015625 14.832031 15.09375 14.667969 L 15.148438 14.5625 C 15.183594 14.492188 15.1875 14.425781 15.117188 14.285156 C 15.078125 14.207031 14.9375 13.863281 14.765625 13.433594 C 14.527344 12.847656 14.222656 12.097656 14.042969 11.699219 C 13.878906 11.328125 13.78125 11.324219 13.582031 11.316406 C 13.414062 11.3125 13.226562 11.3125 13.039062 11.3125 Z M 13.039062 11.3125" fill-opacity=".067" fill-rule="evenodd"/><path fill="#FFF" d="M 14.375 11.550781 C 14.117188 10.976562 13.84375 10.964844 13.597656 10.953125 C 13.394531 10.945312 13.164062 10.945312 12.933594 10.945312 C 12.703125 10.945312 12.328125 11.03125 12.011719 11.378906 C 11.695312 11.726562 10.800781 12.5625 10.800781 14.265625 C 10.800781 15.96875 12.039062 17.617188 12.210938 17.847656 C 12.386719 18.078125 14.609375 21.683594 18.125 23.070312 C 21.050781 24.226562 21.644531 23.996094 22.28125 23.9375 C 22.914062 23.878906 24.328125 23.101562 24.617188 22.292969 C 24.90625 21.484375 24.90625 20.792969 24.820312 20.648438 C 24.734375 20.503906 24.5 20.417969 24.15625 20.242188 C 23.808594 20.070312 22.109375 19.230469 21.789062 19.117188 C 21.472656 19 21.242188 18.945312 21.011719 19.289062 C 20.78125 19.636719 20.117188 20.417969 19.914062 20.648438 C 19.710938 20.878906 19.511719 20.90625 19.164062 20.734375 C 18.820312 20.558594 17.703125 20.195312 16.378906 19.015625 C 15.351562 18.097656 14.65625 16.964844 14.453125 16.617188 C 14.253906 16.273438 14.433594 16.085938 14.605469 15.914062 C 14.761719 15.757812 14.953125 15.507812 15.125 15.304688 C 15.300781 15.105469 15.355469 14.960938 15.472656 14.730469 C 15.585938 14.496094 15.53125 14.296875 15.441406 14.121094 C 15.359375 13.949219 14.683594 12.238281 14.375 11.550781 Z M 14.375 11.550781" fill-rule="evenodd"/></svg>