<svg xmlns="http://www.w3.org/2000/svg" width="36" viewBox="0 0 36 36" height="36" version="1.0"><defs><clipPath id="a"><path d="M 0.488281 0 L 35.511719 0 L 35.511719 35.027344 L 0.488281 35.027344 Z M 0.488281 0"/></clipPath></defs><g clip-path="url(#a)" fill="#FFF"><path d="M 0.488281 0 L 35.511719 0 L 35.511719 42.324219 L 0.488281 42.324219 Z M 0.488281 0"/><path d="M 0.488281 0 L 35.511719 0 L 35.511719 35.027344 L 0.488281 35.027344 Z M 0.488281 0"/><path d="M 0.488281 0 L 35.511719 0 L 35.511719 35.027344 L 0.488281 35.027344 Z M 0.488281 0"/></g><path fill="#FF3D00" d="M 32.011719 24.738281 C 31.71875 26.269531 30.476562 27.4375 28.945312 27.65625 C 26.539062 28.023438 22.523438 28.460938 18 28.460938 C 13.546875 28.460938 9.535156 28.023438 7.054688 27.65625 C 5.523438 27.4375 4.28125 26.269531 3.988281 24.738281 C 3.699219 23.058594 3.40625 20.578125 3.40625 17.511719 C 3.40625 14.449219 3.699219 11.96875 3.988281 10.289062 C 4.28125 8.757812 5.523438 7.589844 7.054688 7.371094 C 9.460938 7.003906 13.476562 6.566406 18 6.566406 C 22.523438 6.566406 26.464844 7.003906 28.945312 7.371094 C 30.476562 7.589844 31.71875 8.757812 32.011719 10.289062 C 32.300781 11.96875 32.667969 14.449219 32.667969 17.511719 C 32.59375 20.578125 32.300781 23.058594 32.011719 24.738281 Z M 32.011719 24.738281"/><path fill="#FFF" d="M 15.082031 22.621094 L 15.082031 12.40625 L 23.835938 17.511719 Z M 15.082031 22.621094"/></svg>